<?xml version="1.0" standalone="no"?>
<!DOCTYPE svg PUBLIC "-//W3C//DTD SVG 20010904//EN"
 "http://www.w3.org/TR/2001/REC-SVG-20010904/DTD/svg10.dtd">
<svg version="1.0" xmlns="http://www.w3.org/2000/svg"
 width="154.000000pt" height="154.000000pt" viewBox="0 0 154.000000 154.000000"
 preserveAspectRatio="xMidYMid meet">
<metadata>
Created by potrace 1.14, written by Peter Selinger 2001-2017
</metadata>
<g transform="translate(0.000000,154.000000) scale(0.100000,-0.100000)"
fill="#000000" stroke="none">
<path d="M668 1483 c-24 -21 -48 -42 -54 -48 -45 -40 -88 -78 -144 -125 -36
-30 -67 -57 -70 -60 -3 -3 -36 -32 -75 -65 -38 -33 -82 -71 -98 -84 -43 -38
-32 -55 38 -57 63 -2 78 5 146 67 14 13 57 51 95 84 38 33 71 62 74 65 48 49
142 120 152 114 13 -7 115 -93 148 -124 13 -12 66 -58 144 -125 7 -5 28 -25
48 -44 33 -30 43 -34 103 -36 52 -3 68 0 72 12 6 16 1 21 -112 118 -38 33 -85
74 -105 91 -19 17 -75 66 -125 109 -49 42 -107 92 -128 111 -21 19 -45 34 -53
34 -8 0 -33 -17 -56 -37z"/>
<path d="M790 1080 c-32 -5 -40 -14 -103 -120 -82 -137 -90 -168 -54 -204 50
-50 96 -30 151 66 19 35 39 69 44 76 10 14 13 13 130 -57 29 -17 57 -31 62
-31 6 0 10 -4 10 -10 0 -5 4 -10 9 -10 21 0 126 -70 138 -92 18 -33 16 -78 -6
-115 -24 -39 -22 -40 92 -38 125 2 121 -4 123 203 2 161 -3 196 -30 214 -6 4
-66 8 -133 8 -104 0 -128 3 -158 20 -19 11 -51 29 -71 40 -19 11 -45 27 -57
35 -25 16 -94 24 -147 15z"/>
<path d="M575 1073 c-94 -6 -111 -15 -160 -94 l-28 -46 -86 2 c-92 2 -135 -11
-143 -42 -3 -10 -4 -93 -4 -185 1 -139 4 -170 17 -183 13 -13 41 -16 144 -16
111 -1 133 -3 156 -20 15 -10 29 -19 32 -19 3 0 44 -23 91 -51 47 -28 101 -53
120 -56 34 -5 82 13 105 40 9 12 18 13 41 4 42 -16 72 2 109 67 28 51 33 55
60 50 25 -5 32 -1 60 40 17 25 34 58 37 75 7 34 14 28 -155 125 l-114 66 -36
-63 c-43 -74 -84 -100 -147 -94 -50 5 -88 31 -109 74 -27 56 -19 90 49 208 35
61 63 111 62 112 -4 5 -56 8 -101 6z"/>
</g>
</svg>
